<?xml version="1.0" encoding="UTF-8"?>
<svg width="46px" height="84px" viewBox="0 0 46 84" version="1.1" xmlns="http://www.w3.org/2000/svg" xmlns:xlink="http://www.w3.org/1999/xlink">
    <title>climate-neutral-certified-vertical</title>
    <g id="Symbols" stroke="none" stroke-width="1" fill="none" fill-rule="evenodd">
        <g id="footer" transform="translate(-1123.000000, -357.000000)" fill="#000000">
            <g id="climate-neutral-certified-vertical" transform="translate(1123.157617, 357.361091)">
                <g id="Group-2" transform="translate(0.000000, 53.913799)">
                    <polygon id="Path" fill-rule="nonzero" points="44.8026465 14.7294244 44.8026465 16.0730126 40.6946643 16.0730126 40.6946643 9.23152338 42.1154702 9.23152338 42.1154702 14.7294244"></polygon>
                    <polygon id="Path" fill-rule="nonzero" points="38.0152097 0.10052905 42.9262562 0.10052905 42.9262562 1.42095191 39.5479813 1.42095191 39.5479813 2.81859248 42.8528993 2.81859248 42.8528993 4.13515445 39.5479813 4.13515445 39.5479813 5.63703893 42.9262562 5.63703893 42.9262562 6.9536009 38.0152097 6.9536009"></polygon>
                    <path d="M37.161954,9.27013224 L39.625199,16.0884561 L38.0808448,16.0884561 L37.6947562,14.9301905 L34.9071969,14.9301905 L34.5211083,16.0884561 L32.9767541,16.0884561 L35.4593035,9.24696692 L37.161954,9.24696692 L37.161954,9.27013224 Z M37.2700588,13.5827414 L36.2739504,10.629164 L35.2662592,13.5827414 L37.2700588,13.5827414 Z" id="Shape"></path>
                    <polygon id="Path" fill-rule="nonzero" points="31.4362608 0.10052905 36.961188 0.10052905 36.961188 1.44797811 34.9728319 1.44797811 34.9728319 6.9536009 33.4284777 6.9536009 33.4284777 1.44797811 31.428539 1.44797811"></polygon>
                    <path d="M32.1428028,16.0730126 L30.5212309,16.0730126 L29.2741649,13.6483765 L28.3398306,13.6483765 L28.3398306,16.0730126 L26.9190247,16.0730126 L26.9190247,9.23152338 L29.9227936,9.23152338 C30.2154488,9.21831915 30.5073317,9.26708214 30.7799102,9.37472363 C31.0524887,9.48236512 31.2988132,9.64637553 31.5034402,9.85602162 C31.7080671,10.0656677 31.8659773,10.3162006 31.9667464,10.5911728 C32.0675156,10.8661451 32.1092131,11.1593794 32.0887504,11.4515326 C32.0887504,12.6677115 31.3899301,13.2970359 30.7181361,13.4823584 L32.1428028,16.0730126 Z M28.3398306,10.5442245 L29.7220276,10.5442245 C29.959472,10.5442245 30.1872643,10.6386231 30.3552128,10.8066103 C30.5235474,10.9745588 30.617753,11.2023896 30.617753,11.4399499 C30.617753,11.6775102 30.5235474,11.9053411 30.3552128,12.0733282 C30.1872643,12.2413153 29.959472,12.3356754 29.7220276,12.3356754 L28.3398306,12.3356754 L28.3398306,10.5442245 Z" id="Shape"></path>
                    <path d="M27.4325224,0.10052905 L29.3089128,0.10052905 L29.3089128,0.127555248 L31.9806456,6.9536009 L30.3127431,6.9536009 L29.8803239,5.79533524 L26.8804158,5.79533524 L26.4518575,6.9536009 L24.7723723,6.9536009 L27.4325224,0.10052905 Z M28.3823003,1.50203051 L27.2973915,4.46719061 L29.4556265,4.46719061 L28.3823003,1.50203051 Z" id="Shape"></path>
                    <polygon id="Path" fill-rule="nonzero" points="20.6064768 10.5751116 20.6064768 9.23152338 25.7414546 9.23152338 25.7414546 10.5751116 23.8920904 10.5751116 23.8920904 16.0730126 22.4597019 16.0730126 22.4597019 10.5751116"></polygon>
                    <polygon id="Path" fill-rule="nonzero" points="16.3595027 0.10052905 18.4598244 0.10052905 18.4598244 0.127555248 20.0852572 4.27028545 21.7184118 0.10052905 23.8303162 0.10052905 23.8303162 6.9536009 22.285962 6.9536009 22.285962 2.24332053 20.4327369 6.9536009 19.7454993 6.9536009 19.7454993 6.93043559 17.8922742 2.23173787 17.8922742 6.9536009 16.34792 6.9536009"></polygon>
                    <path d="M16.5679905,14.8413901 C17.4714377,14.8413901 17.9887964,14.2738399 17.9887964,13.2970359 L17.9887964,9.23152338 L19.4327676,9.23152338 L19.4327676,13.327923 C19.4327676,15.1502609 18.3903285,16.1965609 16.5679905,16.1965609 C14.7456525,16.1965609 13.6877699,15.1541218 13.6877699,13.3395056 L13.6877699,9.23152338 L15.1278802,9.23152338 L15.1278802,13.2854532 C15.1240193,14.2892835 15.6490997,14.8413901 16.5641296,14.8413901 L16.5679905,14.8413901 Z" id="Path" fill-rule="nonzero"></path>
                    <polygon id="Path" fill-rule="nonzero" points="13.143385 0.10052905 14.6877392 0.10052905 14.6877392 6.9536009 13.143385 6.9536009"></polygon>
                    <polygon id="Path" fill-rule="nonzero" points="7.79219764 0.10052905 9.33655187 0.10052905 9.33655187 5.6177345 12.2244943 5.6177345 12.2244943 6.9536009 7.78833676 6.9536009"></polygon>
                    <polygon id="Path" fill-rule="nonzero" points="7.75744967 9.23152338 12.3210164 9.23152338 12.3210164 10.5442245 9.17825556 10.5442245 9.17825556 11.941865 12.266964 11.941865 12.266964 13.2545661 9.17825556 13.2545661 9.17825556 14.7525897 12.3210164 14.7525897 12.3210164 16.0730126 7.75358879 16.0730126"></polygon>
                    <path d="M3.64174568,0.00400691078 C4.23979685,-0.0179229192 4.83244278,0.127671075 5.35211798,0.424418739 C5.87179317,0.721166402 6.29842102,1.15725343 6.58374047,1.68349213 L6.58374047,1.7182401 L5.26331761,2.36300798 L5.26331761,2.32826001 C5.10463521,2.03579793 4.86950728,1.79167414 4.58341566,1.62175657 C4.29732404,1.45183899 3.97069312,1.36245949 3.63788479,1.36303863 C3.3575845,1.36632038 3.080759,1.42620271 2.82401012,1.53909501 C2.56764731,1.6519873 2.33638027,1.81557302 2.14449426,2.02000691 C1.95260825,2.22447941 1.80396415,2.46559171 1.7078281,2.7288655 C1.61130596,2.99213928 1.56922231,3.27220792 1.58389368,3.55216073 C1.56883622,3.83246102 1.61053379,4.11291575 1.70666984,4.37665284 C1.80280589,4.64042854 1.95106389,4.88200415 2.1429499,5.08686274 C2.33483592,5.29172133 2.56610296,5.45565453 2.82323794,5.56881708 C3.07998683,5.68194103 3.35719841,5.74193919 3.63788479,5.74514373 C3.9714653,5.74962235 4.29964057,5.66182582 4.58650437,5.49148355 C4.87336817,5.32117988 5.10772392,5.0749326 5.26331761,4.77992234 L5.26331761,4.74517437 L6.58374047,5.3783596 L6.56057515,5.41696846 C6.27757224,5.94494455 5.85248874,6.38296202 5.33319964,6.68125404 C4.81352444,6.97950745 4.22087851,7.12602805 3.62244125,7.10417544 C3.14716624,7.12440648 2.67304949,7.0468799 2.22943374,6.8764218 C1.7854319,6.70596371 1.38119718,6.44624193 1.04182534,6.11327916 C0.702183243,5.78031639 0.434662483,5.38121665 0.25563322,4.94068961 C0.0766039566,4.50016257 -0.0100729241,4.02755157 0.000930599767,3.55216073 C-0.0096868355,3.07541859 0.0779166577,2.6015721 0.258374448,2.16011845 C0.43879363,1.7187034 0.708167615,1.31914036 1.04954712,0.986293413 C1.39123549,0.65344647 1.79740065,0.394496876 2.24333293,0.225505915 C2.68926521,0.0565149543 3.1653124,-0.0188881405 3.64174568,0.00400691078 Z" id="Path" fill-rule="nonzero"></path>
                    <polygon id="Path" fill-rule="nonzero" points="0.429488896 9.23152338 1.87346009 9.23152338 4.74981983 13.5209672 4.74981983 9.23152338 6.1744866 9.23152338 6.1744866 16.0730126 4.81545488 16.0730126 1.84257301 11.6098289 1.84257301 16.0730126 0.417906239 16.0730126"></polygon>
                    <path d="M8.29037445,27.3931597 C8.14173035,27.6341175 7.93285645,27.8320651 7.68460151,27.967505 C7.43596048,28.1029449 7.15643236,28.1711281 6.87342945,28.1653368 C6.38502743,28.1653368 5.91670201,27.9713273 5.57115275,27.6259325 C5.22598959,27.2805762 5.03178704,26.812135 5.03178704,26.3236944 C5.03178704,25.8352923 5.22598959,25.3668511 5.57115275,25.0214563 C5.91670201,24.6761001 6.38502743,24.482052 6.87342945,24.482052 C7.15681845,24.4747163 7.43673265,24.5422432 7.68575977,24.6777989 C7.9344008,24.8133932 8.14288862,25.0122288 8.29037445,25.2542291 L8.36759216,25.3700556 L7.71896339,25.7136744 L7.65718922,25.6132914 C7.57379409,25.4844537 7.45912579,25.3784724 7.32438088,25.3049997 C7.18963598,25.2314884 7.03867535,25.192841 6.88501211,25.1924549 C6.60895879,25.2317973 6.35645688,25.3694379 6.1734509,25.5800878 C5.99083101,25.7907377 5.8900619,26.0602661 5.8900619,26.3391379 C5.8900619,26.6180483 5.99083101,26.8875767 6.1734509,27.0982266 C6.35645688,27.3088765 6.60895879,27.4464785 6.88501211,27.4858209 C7.03906144,27.4853962 7.19040815,27.4462854 7.32515306,27.3720792 C7.46028405,27.297873 7.57418018,27.1909651 7.65718922,27.0611235 L7.71896339,26.9607405 L8.36759216,27.3082202 L8.29037445,27.3931597 Z" id="Path" fill-rule="nonzero"></path>
                    <polygon id="Path" fill-rule="nonzero" points="12.5026006 25.2117593 10.7806456 25.2117593 10.7806456 25.9260232 12.4678526 25.9260232 12.4678526 26.6171217 10.7806456 26.6171217 10.7806456 27.3892988 12.5026006 27.3892988 12.5026006 28.0803973 10.0354947 28.0803973 10.0354947 24.5206608 12.5026006 24.5206608"></polygon>
                    <path d="M16.301712,28.0881191 L15.5295349,26.8101659 L15.1086983,26.8101659 L15.1086983,28.0881191 L14.3635474,28.0881191 L14.3635474,24.5206608 L15.8770146,24.5206608 C16.0329943,24.5108156 16.1889741,24.5338264 16.3356878,24.5881877 C16.4820153,24.6425104 16.615602,24.7270251 16.7271816,24.836211 C16.8391472,24.9453968 16.9264033,25.0768214 16.9843165,25.2219907 C17.0418437,25.36716 17.0684838,25.5228309 17.0623064,25.6789265 C17.0723447,25.9123556 17.0047792,26.1425802 16.8700343,26.3333466 C16.7349033,26.5241515 16.5407008,26.6647264 16.3171555,26.7329482 L17.1897156,28.0997017 L16.301712,28.0881191 Z M15.085533,25.2117593 L15.7920751,25.2117593 C15.8550075,25.2059294 15.9187121,25.2133423 15.9789419,25.2334961 C16.0387857,25.2536499 16.0939963,25.28612 16.1410991,25.3287828 C16.1878158,25.3714842 16.2252664,25.4234903 16.2507483,25.4814422 C16.2762301,25.5393941 16.2893571,25.6020562 16.2893571,25.6654134 C16.2893571,25.7287705 16.2762301,25.7914327 16.2507483,25.8494232 C16.2252664,25.9073751 16.1878158,25.9593812 16.1410991,26.002044 C16.0939963,26.0447454 16.0387857,26.0772154 15.9789419,26.0973693 C15.9187121,26.1175231 15.8550075,26.1248974 15.7920751,26.1190674 L15.085533,26.1190674 L15.085533,25.2117593 Z" id="Shape"></path>
                    <polygon id="Path" fill-rule="nonzero" points="21.4058027 25.2117593 20.3865289 25.2117593 20.3865289 28.0881191 19.6375171 28.0881191 19.6375171 25.2117593 18.6143824 25.2117593 18.6143824 24.5206608 21.4058027 24.5206608"></polygon>
                    <polygon id="Path" fill-rule="nonzero" points="23.892213 28.0881191 23.1470621 28.0881191 23.1470621 24.5206608 23.892213 24.5206608"></polygon>
                    <polygon id="Path" fill-rule="nonzero" points="28.3245096 25.2117593 26.6064155 25.2117593 26.6064155 25.9260232 28.2897616 25.9260232 28.2897616 26.6171217 26.6064155 26.6171217 26.6064155 28.0881191 25.8574037 28.0881191 25.8574037 24.5206608 28.3245096 24.5206608"></polygon>
                    <polygon id="Path" fill-rule="nonzero" points="30.8340852 28.0881191 30.0812125 28.0881191 30.0812125 24.5206608 30.8263634 24.5206608"></polygon>
                    <polygon id="Path" fill-rule="nonzero" points="35.2663818 25.2117593 33.5482877 25.2117593 33.5482877 25.9260232 35.2316338 25.9260232 35.2316338 26.6171217 33.5482877 26.6171217 33.5482877 27.3892988 35.2663818 27.3892988 35.2663818 28.0803973 32.7992759 28.0803973 32.7992759 24.5206608 35.2663818 24.5206608"></polygon>
                    <path d="M38.4168644,28.0881191 L37.1118851,28.0881191 L37.1118851,24.5206608 L38.4168644,24.5206608 C38.8898229,24.5206608 39.3434769,24.7086087 39.6782157,25.0431158 C40.0125684,25.377623 40.2005935,25.8313156 40.2005935,26.3043899 C40.2005935,26.7774642 40.0125684,27.2311955 39.6782157,27.5657026 C39.3434769,27.9002098 38.8898229,28.0881191 38.4168644,28.0881191 Z M38.4091426,25.2117593 L37.8531751,25.2117593 L37.8531751,27.3970205 L38.4091426,27.3970205 C38.5531537,27.4038157 38.6971647,27.3801871 38.8315235,27.3276404 C38.9658823,27.2750938 39.0875002,27.1948646 39.1886554,27.092165 C39.2901967,26.9894655 39.3685727,26.8665735 39.4191503,26.7314811 C39.4697279,26.5964273 39.4913489,26.4522232 39.4824688,26.3082508 C39.4944376,26.163236 39.4747471,26.0173717 39.4253277,25.8805033 C39.3759084,25.7436735 39.2979185,25.6190055 39.1959911,25.5150319 C39.0944498,25.4110582 38.9712876,25.3301727 38.8353844,25.2778577 C38.6998673,25.2255041 38.5543119,25.2029951 38.4091426,25.2117593 Z" id="Shape"></path>
                    <polygon id="Path" fill-rule="nonzero" points="44.8837251 20.2466299 1.0163435 20.2466299 1.0163435 19.4165395 44.8837251 19.4165395"></polygon>
                </g>
                <path d="M42.5698596,12.4508197 C42.878226,13.2075524 42.8746671,14.0555599 42.5598633,14.8096757 C42.2451119,15.5637393 41.6447082,16.1626253 40.8898596,16.4754926 L33.9657475,19.3173617 L33.8924764,19.1394178 C33.5826447,18.3828421 33.5855232,17.5342589 33.9004316,16.7797767 C34.2153923,16.0253468 34.8166858,15.4265655 35.5724764,15.1147449 L42.4913549,12.2728757 L42.5698596,12.4508197 Z" id="Path" fill-rule="nonzero"></path>
                <path d="M37.1059344,5.35399723 L37.2472428,5.49530564 C37.822525,6.07388508 38.1453886,6.85662901 38.1453886,7.67250191 C38.1453886,8.48842714 37.822525,9.27117107 37.2472428,9.84969817 L31.9560278,15.1409131 L31.8199531,14.9996047 C31.5338297,14.7138477 31.3068465,14.3744458 31.151983,14.0008683 C30.9971194,13.6272907 30.917411,13.2268122 30.917411,12.8224084 C30.917411,12.4180047 30.9971194,12.0175785 31.151983,11.644001 C31.3068465,11.2704234 31.5338297,10.9310215 31.8199531,10.6452122 L37.1059344,5.35399723 Z" id="Path" fill-rule="nonzero"></path>
                <path d="M26.7119157,8.01268882 L29.5904204,1.10953219 L29.7735979,1.18280321 C30.5263007,1.50059013 31.1227269,2.10330191 31.432611,2.85933331 C31.7424428,3.61535948 31.740611,4.46328321 31.4274297,5.21792247 L28.548925,12.1158664 L28.3709811,12.0425954 C27.6167605,11.728001 27.0182933,11.1268122 26.7072054,10.3711262 C26.3961176,9.61544022 26.3977923,8.76711873 26.7119157,8.01268882 Z" id="Path" fill-rule="nonzero"></path>
                <path d="M5.77733625,7.56259536 C6.06319793,7.27573929 6.40296615,7.04807574 6.77701475,6.89274116 C7.15106335,6.73745892 7.55211755,6.65748882 7.95714933,6.65748882 C8.36218111,6.65748882 8.76318298,6.73745892 9.13728391,6.89274116 C9.51133251,7.04807574 9.8510484,7.27573929 10.1369624,7.56259536 L15.4229437,12.8485767 L15.286869,12.9846514 C15.0009549,13.2715599 14.661239,13.4992234 14.2871905,13.6545056 C13.9130895,13.8098402 13.5120876,13.8898103 13.1070559,13.8898103 C12.7020241,13.8898103 12.3009699,13.8098402 11.9269213,13.6545056 C11.5528727,13.4992234 11.2131045,13.2715599 10.9272428,12.9846514 L5.64126148,7.69867013 L5.77733625,7.56259536 Z" id="Path" fill-rule="nonzero"></path>
                <path d="M1.44909625,15.010072 C1.60431569,14.6361804 1.83178559,14.2965692 2.11846896,14.0107599 C2.40515755,13.7248982 2.74542298,13.4984384 3.11978036,13.3443075 C3.49413774,13.1901767 3.89522335,13.1114627 4.30006148,13.1126016 C4.70489961,13.1137655 5.10554559,13.1947823 5.47901849,13.3510066 L12.4031306,16.2347449 L12.3298596,16.4126888 C12.1745774,16.7862141 11.9472278,17.1255113 11.6607381,17.4110589 C11.3743007,17.6966589 11.0343232,17.9229617 10.6603269,18.0769879 C10.2878484,18.2280832 9.88988204,18.3062739 9.48799045,18.3072718 C9.07976615,18.3078963 8.67567643,18.2259898 8.29995307,18.0665206 L1.3967598,15.1880159 L1.44909625,15.010072 Z" id="Path" fill-rule="nonzero"></path>
                <path d="M0.287230227,23.7136234 C0.28861662,22.8970178 0.614005405,22.1142739 1.19195681,21.5372645 C1.76990821,20.9603075 2.5531912,20.6362402 3.36984391,20.6362402 L10.8330372,20.6362402 L10.8330372,20.8298851 C10.8302633,21.6465954 10.504626,22.4290776 9.92709326,23.0066103 C9.34961288,23.5840907 8.56713064,23.9097804 7.75042036,23.9125019 L0.287230227,23.9125019 L0.287230227,23.7136234 Z" id="Path" fill-rule="nonzero"></path>
                <path d="M2.50629774,32.0874552 C2.1964712,31.3308795 2.19934447,30.4822963 2.51427905,29.7278141 C2.82921886,28.9733841 3.43050709,28.3746028 4.18629251,28.0627823 L11.0999531,25.2209131 L11.1732241,25.4040907 C11.4831605,26.1593056 11.4808577,27.0065804 11.1668914,27.7601206 C10.852925,28.5136608 10.2528876,29.1118664 9.49845774,29.4235299 L2.57956354,32.2182963 L2.50629774,32.0874552 Z" id="Path" fill-rule="nonzero"></path>
                <path d="M7.95976615,39.1371748 L7.82369139,38.9958664 C7.53756802,38.710057 7.31058484,38.3707075 7.15572129,37.9971299 C7.00085774,37.6235524 6.92114933,37.2230739 6.92114933,36.8186701 C6.92114933,36.4142664 7.00085774,36.0138402 7.15572129,35.6402627 C7.31058484,35.2666851 7.53756802,34.9272832 7.82369139,34.6414739 L13.1096727,29.3502589 L13.2509811,29.4915673 C13.8262633,30.0701468 14.1491269,30.8528907 14.1491269,31.6687636 C14.1491269,32.4846888 13.8262633,33.2674327 13.2509811,33.8459599 L7.95976615,39.1371748 Z" id="Path" fill-rule="nonzero"></path>
                <path d="M18.3590185,36.5203524 L15.4752802,43.407829 L15.2973362,43.334558 C14.9238633,43.178857 14.5848278,42.9510365 14.2995419,42.6641281 C14.0142559,42.3772197 13.7883194,42.0368757 13.6347119,41.6625655 C13.4811045,41.2882552 13.4028091,40.887358 13.4043052,40.4827449 C13.4057923,40.0781318 13.4870708,39.6778103 13.6435045,39.3046514 L16.5220091,32.4014739 L16.6999531,32.4747449 C17.45454,32.7904384 18.0530596,33.3926739 18.3640951,34.1491972 C18.6751306,34.9057206 18.6732989,35.7547225 18.3590185,36.5098851 L18.3590185,36.5203524 Z" id="Path" fill-rule="nonzero"></path>
                <path d="M19.4057475,10.8754926 C19.034368,11.0307225 18.6358783,11.1107449 18.233411,11.1110066 C17.8255007,11.1087038 17.4219867,11.0269019 17.0453736,10.8702589 C16.6712204,10.7146627 16.3315045,10.4865804 16.0459045,10.1991486 C15.7602521,9.91171686 15.5343157,9.57064022 15.3810746,9.19549256 L12.56014,2.29233593 L12.7380839,2.2190649 C13.4938746,1.90750079 14.3424577,1.90890864 15.097254,2.22297966 C15.8519979,2.53705593 16.4510933,3.138072 16.7627568,3.89383125 L19.604626,10.8126888 L19.4057475,10.8754926 Z" id="Path" fill-rule="nonzero"></path>
                <path d="M24.1526633,44.4859599 L23.9590185,44.4859599 C23.1418895,44.4845991 22.3586222,44.1593804 21.7807755,43.581586 C21.2029811,43.0037916 20.8777624,42.2205243 20.8764017,41.403343 L20.8764017,33.9349318 L21.0700465,33.9349318 C21.8875942,33.9349318 22.6716989,34.2597318 23.2497549,34.8378402 C23.8278633,35.4159486 24.1526633,36.200001 24.1526633,37.0175486 L24.1526633,44.4859599 Z" id="Path" fill-rule="nonzero"></path>
                <path d="M24.1526633,10.5457729 L23.9590185,10.5457729 C23.149583,10.5403299 22.3747942,10.2167337 21.8019718,9.64485331 C21.229097,9.07297293 20.9041923,8.29875985 20.8973362,7.48932434 L20.8973362,-8.8817842e-15 L21.0909811,-8.8817842e-15 C21.907639,-8.8817842e-15 22.6909063,0.324056299 23.2688577,0.901023776 C23.8468091,1.47799649 24.1721848,2.26072994 24.1735979,3.07738265 L24.1526633,10.5457729 Z" id="Path" fill-rule="nonzero"></path>
                <path d="M32.306682,42.2616608 C31.9353026,42.4168907 31.5368129,42.4969131 31.1343456,42.4971768 C30.7278484,42.4976458 30.3254858,42.4157393 29.9515419,42.2564271 C29.5771269,42.102715 29.237097,41.8758888 28.95134,41.5891898 C28.665583,41.302543 28.4398035,40.9618327 28.2872428,40.5868944 L25.4872428,33.6575486 L25.6651867,33.5842776 C26.039968,33.4317692 26.4412316,33.3547823 26.845897,33.357682 C27.2505101,33.3607486 27.6505699,33.4436496 28.0231007,33.6017056 C28.3956316,33.7597617 28.733254,33.9898327 29.0166035,34.2787823 C29.2999007,34.5676795 29.5233774,34.9096982 29.6741587,35.2852122 L32.5212615,42.198857 L32.306682,42.2616608 Z" id="Path" fill-rule="nonzero"></path>
                <path d="M39.2883643,36.9547449 C39.0024503,37.2416533 38.6627344,37.4693169 38.2886858,37.6245991 C37.9145848,37.7799337 37.513583,37.8599038 37.1085512,37.8599038 C36.7035194,37.8599038 36.3024652,37.7799337 35.9284166,37.6245991 C35.554368,37.4693169 35.2146521,37.2416533 34.9287381,36.9547449 L29.6427568,31.6687636 L29.7788316,31.5326888 C30.0646933,31.2458327 30.4044615,31.0181692 30.7785101,30.862887 C31.1525587,30.7075524 31.5536129,30.6275823 31.9586447,30.6275823 C32.3636764,30.6275823 32.7647306,30.7075524 33.1387792,30.862887 C33.5128278,31.0181692 33.8525437,31.2458327 34.1384577,31.5326888 L39.424439,36.7977356 L39.2883643,36.9547449 Z" id="Path" fill-rule="nonzero"></path>
                <path d="M43.6218222,29.4706327 C43.387826,30.0326215 42.9924241,30.5125991 42.4856503,30.8498552 C41.9788764,31.1870589 41.3834447,31.3664159 40.7747194,31.3652274 C40.3781662,31.3664683 39.9852241,31.290057 39.6180839,31.1401655 L32.6887381,28.2564271 L32.7672428,28.0784832 C33.0828316,27.3252047 33.6844914,26.7279935 34.4400204,26.4179 C35.1956017,26.1078066 36.0433475,26.1102664 36.7971493,26.4246514 L43.6950933,29.3031561 L43.6218222,29.4706327 Z" id="Path" fill-rule="nonzero"></path>
                <path d="M44.783696,20.7932496 C44.7851045,21.6104309 44.4625026,22.3947972 43.886697,22.9745804 C43.310839,23.5543113 42.5286708,23.8821991 41.7115419,23.8863337 L34.2221961,23.8863337 L34.2221961,23.7136234 C34.2235568,22.8970178 34.5489325,22.1142739 35.1268839,21.5372645 C35.7048353,20.9603075 36.4881549,20.6362402 37.3048129,20.6362402 L44.783696,20.6362402 L44.783696,20.7932496 Z" id="Path" fill-rule="nonzero"></path>
            </g>
        </g>
    </g>
</svg>