<?xml version="1.0" encoding="UTF-8"?>
<svg width="41px" height="41px" viewBox="0 0 41 41" version="1.1" xmlns="http://www.w3.org/2000/svg" xmlns:xlink="http://www.w3.org/1999/xlink">
    <title>08E855C5-FED3-412B-BBAA-28A315D2200D</title>
    <g id="design" stroke="none" stroke-width="1" fill="none" fill-rule="evenodd">
        <g id="reviews-landing1" transform="translate(-214.000000, -1306.000000)" stroke="#1F3337">
            <g id="information" transform="translate(215.000000, 1307.445132)">
                <path d="M15.3440287,38.1110377 C6.5711331,36.2066651 0,28.3981516 0,19.0548677 C0,9.71371203 6.56813987,1.90662763 15.3380341,6.59383659e-12 M23.6629649,0.000217222526 C32.4323589,1.90722054 39,9.71406674 39,19.0548677 C39,28.3981516 32.4288669,36.2066651 23.6559713,38.1110377" id="Shape"></path>
                <path d="M16.1850573,32.1448684 C10.3319667,30.6672152 6,25.366934 6,19.0548677 C6,12.7507393 10.3210781,7.45585283 16.1629824,5.97045993 M22.8390237,5.97097017 C28.6799111,7.45706504 33,12.751461 33,19.0548677 C33,25.3672948 28.667538,30.6678211 22.813939,32.1451217" id="Shape"></path>
                <path d="M21.9395505,12.4917234 C24.5600078,13.4665375 26.4471903,15.9683125 26.4989339,18.9327009 C26.5524714,21.9998636 24.6250088,24.6406558 21.8954776,25.634258 M17.1037761,25.6339659 C14.4608177,24.6707178 12.5530945,22.1577356 12.5010661,19.1770345 C12.4477903,16.1248622 14.356198,13.494903 17.0645591,12.4901637" id="Shape"></path>
            </g>
        </g>
    </g>
</svg>