<?xml version="1.0" encoding="UTF-8"?>
<svg width="18px" height="13px" viewBox="0 0 18 13" version="1.1" xmlns="http://www.w3.org/2000/svg" xmlns:xlink="http://www.w3.org/1999/xlink">
    <title>gift</title>
    <g id="design" stroke="none" stroke-width="1" fill="none" fill-rule="evenodd">
        <g id="menu-new2" transform="translate(-1231.000000, -558.000000)" stroke="#85853E" stroke-width="1.2">
            <g id="gift" transform="translate(1232.000000, 559.000000)">
                <path d="M16,8.37831492 L16,8.40677966 C16,10.6949888 15.1437166,11.3898305 13.4962231,11.3898305 L2.14711414,11.3898305 C0.499620645,11.3898305 0,10.3177728 0,8.67027929 L0,2.39142492 C0,0.743931426 0.499620645,-7.40740802e-13 2.14711414,-7.40740802e-13 L13.4962231,-7.40740802e-13 C15.1437166,-7.40740802e-13 16,0.743931426 16,2.39142492 L16,6.93765181" id="Path"></path>
                <line x1="8.45989945e-14" y1="4.50022147" x2="2.8651779" y2="4.50022147" id="Path-27"></line>
                <line x1="9.59686834" y1="4.50022147" x2="15.8821271" y2="4.50022147" id="Path-27-Copy"></line>
                <path d="M4.18584271,6.16366259 C4.99989844,6.16366259 5.79745237,5.26198238 6.23728814,4.67213716 C5.84111689,4.22019142 4.99989844,3.18061174 4.18584271,3.18061174 C3.37178697,3.18061174 2.71186441,3.84839042 2.71186441,4.67213716 C2.71186441,5.49588391 3.37178697,6.16366259 4.18584271,6.16366259 Z" id="Oval"></path>
                <path d="M7.71126644,6.16366259 C8.52532217,6.16366259 9.32287609,5.26198238 9.76271186,4.67213716 C9.36654062,4.22019142 8.52532217,3.18061174 7.71126644,3.18061174 C6.8972107,3.18061174 6.23728814,3.84839042 6.23728814,4.67213716 C6.23728814,5.49588391 6.8972107,6.16366259 7.71126644,6.16366259 Z" id="Oval-Copy" transform="translate(8.000000, 4.672137) scale(-1, 1) translate(-8.000000, -4.672137) "></path>
                <line x1="3.97112916" y1="8.67027929" x2="6.88251533" y2="5.53801337" id="Path-28"></line>
                <line x1="5.32706136" y1="8.67027929" x2="8.23844754" y2="5.53801337" id="Path-28-Copy" transform="translate(6.782754, 7.104146) scale(-1, 1) translate(-6.782754, -7.104146) "></line>
            </g>
        </g>
    </g>
</svg>