<svg width="31px" height="23px" viewBox="0 0 31 23" version="1.1" xmlns="http://www.w3.org/2000/svg" xmlns:xlink="http://www.w3.org/1999/xlink">
    <title>F85AE5C8-E1B0-4450-9F45-9697F09C7098</title>
    <g id="design" stroke="none" stroke-width="1" fill="none" fill-rule="evenodd">
        <g id="practitioners1" transform="translate(-256.000000, -998.000000)" fill="#868641" fill-rule="nonzero">
            <path d="M263.154034,1020.22966 C266.694807,1020.22966 268.948026,1017.65455 268.948026,1014.43567 C268.948026,1011.40991 267.467339,1009.60734 264.892232,1008.96356 L261.802103,1008.96356 C261.930858,1004.84339 265.149742,1003.04082 270.299957,1002.13953 L270.299957,998.47 C260.836438,999.049399 256.33,1004.26399 256.33,1012.05369 C256.33,1017.07515 258.84073,1020.22966 263.154034,1020.22966 Z M279.1197,1020.22966 C282.660472,1020.22966 284.978069,1017.65455 284.978069,1014.43567 C284.978069,1011.40991 283.497382,1009.60734 280.922275,1008.96356 L277.767768,1008.96356 C277.896524,1004.84339 281.179785,1003.04082 286.33,1002.13953 L286.33,998.47 C276.802103,999.049399 272.360043,1004.26399 272.360043,1012.05369 C272.360043,1017.07515 274.806395,1020.22966 279.1197,1020.22966 Z" id="quote"></path>
        </g>
    </g>
</svg>